<svg width="16" height="16" viewBox="0 0 16 16" fill="none" xmlns="http://www.w3.org/2000/svg">
<g clip-path="url(#clip0_2919_46)">
<path d="M11.7065 14C11.5999 14.0004 11.4947 13.9753 11.3998 13.9267L7.99984 12.1467L4.59984 13.9267C4.48944 13.9847 4.36496 14.0106 4.24056 14.0015C4.11616 13.9923 3.99683 13.9484 3.89613 13.8748C3.79543 13.8012 3.7174 13.7008 3.67092 13.585C3.62443 13.4693 3.61136 13.3428 3.63318 13.22L4.29984 9.46665L1.55318 6.79999C1.46748 6.71447 1.40669 6.60723 1.37733 6.48978C1.34796 6.37233 1.35114 6.2491 1.38651 6.13332C1.42515 6.01484 1.49623 5.90956 1.59168 5.82943C1.68712 5.7493 1.80312 5.69753 1.92651 5.67999L5.72651 5.12665L7.39984 1.70665C7.45443 1.59394 7.53967 1.49888 7.64578 1.43237C7.7519 1.36586 7.8746 1.33058 7.99984 1.33058C8.12508 1.33058 8.24779 1.36586 8.3539 1.43237C8.46002 1.49888 8.54525 1.59394 8.59984 1.70665L10.2932 5.11999L14.0932 5.67332C14.2166 5.69086 14.3326 5.74263 14.428 5.82276C14.5235 5.90289 14.5945 6.00817 14.6332 6.12665C14.6685 6.24244 14.6717 6.36567 14.6424 6.48312C14.613 6.60057 14.5522 6.7078 14.4665 6.79332L11.7198 9.45999L12.3865 13.2133C12.4103 13.3383 12.3978 13.4675 12.3506 13.5856C12.3033 13.7038 12.2233 13.8059 12.1198 13.88C11.9991 13.9646 11.8538 14.0068 11.7065 14Z" fill="#F95F5F"/>
</g>
<defs>
<clipPath id="clip0_2919_46">
<rect width="16" height="16" fill="white"/>
</clipPath>
</defs>
</svg>
